<svg id="Layer_1" data-name="Layer 1" xmlns="http://www.w3.org/2000/svg" viewBox="0 0 295.49 250.98"><defs><style>.cls-1{fill:#264de4;}.cls-2{fill:#2965f1;}.cls-3{fill:#ebebeb;}.cls-4{fill:#fff;}.cls-5{fill:#1c769b;}.cls-6{fill:#2795b7;}.cls-7{fill:#3fb5d1;}.cls-8{fill:#e44d26;}.cls-9{fill:#f16529;}.cls-10{fill:#f7df1e;}</style></defs><path class="cls-1" d="M120.59,170.26l-44.11,9.48L17.47,88l94.3-49.4L153.6,139.32l-33,30.94Z" transform="translate(-17.47 -38.12)"/><path class="cls-2" d="M143,137,107.29,51,68.74,71.15,116.36,162,143,137Z" transform="translate(-17.47 -38.12)"/><path class="cls-3" d="M60,121.25l7.24,11.25,26.42-13.84-6.18-11.81ZM45.33,98.47l7.25,11.24L81.11,94.76,74.93,83Zm58.18,39-.05,0-15,3.34-5.78-9-11.85,6.21L82.2,155.79l27.7-5.95,0-.05Z" transform="translate(-17.47 -38.12)"/><path class="cls-4" d="M114.85,92.5l-10.39-25L74.89,83l6.18,11.8,16.64-8.71L103,98.72l-15.56,8.15,6.18,11.81,14.54-7.62,6.65,16-11.31,10.45,6.44,12.28,20.68-19.38-.86-2.09L116.22,95.82l-1.37-3.32Z" transform="translate(-17.47 -38.12)"/><path class="cls-5" d="M213.54,201.45a49.7,49.7,0,0,0,28,44.73l-23.71-65A49.51,49.51,0,0,0,213.54,201.45Z" transform="translate(-17.47 -38.12)"/><path class="cls-5" d="M264.12,205.79,249.2,249.13a49.66,49.66,0,0,0,30.55-.79,4.83,4.83,0,0,1-.35-.68Z" transform="translate(-17.47 -38.12)"/><path class="cls-5" d="M296.81,198.94c0-6.15-2.21-10.4-4.1-13.71-2.52-4.1-4.89-7.57-4.89-11.66,0-4.57,3.47-8.83,8.35-8.83.22,0,.43,0,.64,0a49.68,49.68,0,0,0-75.1,9.35c1.17,0,2.27.06,3.2.06,5.2,0,13.25-.63,13.25-.63a2.05,2.05,0,0,1,.32,4.09s-2.7.32-5.69.48L250.89,232l10.88-32.62L254,178.14c-2.68-.16-5.22-.48-5.22-.48-2.68-.16-2.36-4.25.32-4.09,0,0,8.21.63,13.09.63,5.2,0,13.25-.63,13.25-.63a2.05,2.05,0,0,1,.32,4.09s-2.7.32-5.69.48l18,53.43L293,215C295.17,208.13,296.81,203.19,296.81,198.94Z" transform="translate(-17.47 -38.12)"/><path class="cls-5" d="M307.21,182.71a46.88,46.88,0,0,1-3.79,17.8l-15.18,43.9a49.71,49.71,0,0,0,18.63-66.81A37,37,0,0,1,307.21,182.71Z" transform="translate(-17.47 -38.12)"/><path class="cls-6" d="M287.82,173.57c0-4.57,3.47-8.83,8.35-8.83.22,0,.43,0,.64,0a49.69,49.69,0,0,0-75.1,9.36c1.17,0,2.27.06,3.2.06,5.2,0,13.25-.63,13.25-.63a2.05,2.05,0,0,1,.32,4.09s-2.7.32-5.69.48l6.9,20.53a45.25,45.25,0,0,0,15.1,2.57,46.62,46.62,0,0,0,6.51-.46l.47-1.42L254,178.14c-2.68-.16-5.22-.48-5.22-.48-2.68-.15-2.36-4.25.32-4.09,0,0,8.21.63,13.09.63,5.2,0,13.25-.63,13.25-.63a2.05,2.05,0,0,1,.32,4.09s-2.7.32-5.69.48l6,17.79a42.15,42.15,0,0,0,15-13.4C289.24,179.53,287.82,176.73,287.82,173.57Z" transform="translate(-17.47 -38.12)"/><path class="cls-7" d="M263.25,151.73a49.57,49.57,0,0,0-38.61,18.44,128.69,128.69,0,0,0,26,2.59c17.46,0,33.36-3.3,45.33-8.71A49.54,49.54,0,0,0,263.25,151.73Z" transform="translate(-17.47 -38.12)"/><path class="cls-8" d="M263.25,66.12l-36.14,82.07L190,146.13,159.29,125.3l21-87.18,82.92,28Z" transform="translate(-17.47 -38.12)"/><path class="cls-9" d="M192.46,139l30,1.66,30.87-70.13L219.45,59Z" transform="translate(-17.47 -38.12)"/><path class="cls-3" d="M197.76,74.84l14.68,5L216,69.42l-26-8.79-.69,2.87L182.12,93l23.23,7.85,3.5-10.38-13.73-4.64Zm-6.51,27-10.42-3.52-4.05,16.79,19.27,13.08h0l3.65-10.8h-.05l-10.51-7,2.06-8.53Z" transform="translate(-17.47 -38.12)"/><path class="cls-4" d="M205.31,100.8l12.78,4.31-5.75,13.06-12.63-.79-3.65,10.8,23.27,1.29.75-1.7,11.67-26.5,1.19-2.7-24.12-8.15-3.51,10.38Zm7.1-21v0l25.07,8.47,1-2.27,2.25-5.1,1.19-2.7-26-8.78-3.5,10.35Z" transform="translate(-17.47 -38.12)"/><path class="cls-10" d="M93.17,182.33l106.77-1.26,1.26,106.77L94.42,289.1Z" transform="translate(-17.47 -38.12)"/><path d="M125.78,273.25l8.11-5c1.61,2.78,3.07,5.13,6.51,5.08s5.37-1.35,5.31-6.36l-.41-34.12,10-.12.4,34.26c.12,10.39-5.91,15.19-14.8,15.3-8,.09-12.74-4-15.16-9m35.47-1.49,8.11-4.83c2.2,3.49,5,6,10,6,4.15-.05,6.78-2.16,6.75-5,0-3.44-2.78-4.62-7.39-6.58l-2.52-1c-7.28-3-12.13-6.81-12.22-15-.09-7.53,5.58-13.33,14.54-13.44,6.37-.07,11,2.1,14.35,7.86l-7.75,5.11c-1.76-3.06-3.64-4.25-6.5-4.22s-4.78,1.92-4.75,4.36c0,3,1.91,4.2,6.23,6l2.52,1c8.57,3.56,13.42,7.23,13.52,15.61.11,9-6.93,14.06-16.46,14.17-9.32.11-15.39-4.26-18.4-10" transform="translate(-17.47 -38.12)"/></svg>