<svg id="Layer_1" data-name="Layer 1" xmlns="http://www.w3.org/2000/svg" xmlns:xlink="http://www.w3.org/1999/xlink" viewBox="0 0 502.48 359.71"><defs><style>.cls-1{fill:#8e714e;}.cls-1,.cls-2,.cls-3,.cls-4,.cls-5,.cls-6{fill-rule:evenodd;}.cls-2{fill:#442d22;}.cls-3{fill:#fff;}.cls-4{fill:#a6a385;}.cls-5{fill:#499d4a;}.cls-6{fill:#58aa50;}.cls-7{fill:#83cd29;}.cls-8{fill:#404137;}.cls-9{fill:url(#linear-gradient);}.cls-10{fill:url(#linear-gradient-2);}.cls-11{fill:url(#radial-gradient);}.cls-12{fill:#231f1f;}</style><linearGradient id="linear-gradient" x1="-6298.86" y1="-4579.28" x2="-6165.47" y2="-4658.1" gradientTransform="translate(820.42 586.84) scale(0.07)" gradientUnits="userSpaceOnUse"><stop offset="0" stop-color="#909ca9"/><stop offset="1" stop-color="#ededee"/></linearGradient><linearGradient id="linear-gradient-2" x1="-6295.87" y1="-6064.77" x2="-6188.54" y2="-6064.77" gradientTransform="translate(820.42 586.84) scale(0.07)" gradientUnits="userSpaceOnUse"><stop offset="0" stop-color="#939fab"/><stop offset="1" stop-color="#dcdee1"/></linearGradient><radialGradient id="radial-gradient" cx="-8046.17" cy="-7554.97" r="142.5" gradientTransform="matrix(-0.07, -0.01, 0.02, -0.13, 28.62, -904.77)" gradientUnits="userSpaceOnUse"><stop offset="0" stop-color="#ee352c"/><stop offset="1" stop-color="#a91d22"/></radialGradient></defs><title>box2</title><path class="cls-1" d="M433.33,74.65c-.36.19-.49,1.15-.35,1.6.84,3.07,3.2,11.15,4.86,16.62a.6.6,0,0,0,.59.32c1.17-.27,3.93-1,6.28-1.73a16.9,16.9,0,0,0,6-2.8c2.32-2.2,2.72-5.55,1.73-8.82-2.23-7.38-8.25-8.63-15.93-6.3A12.59,12.59,0,0,0,433.33,74.65Zm29.89,28.06c-2.28-7.53-9.09-10-19.13-7-.45.14-3.67,1-4.39,1.41-.2.15-.46.39-.39.62,1.63,5.39,4.16,14,5.39,17.29.59,1.39,2.28,3.12,3.76,3.34s4.76-.44,6.88-1.09c6-1.81,10.25-6.74,7.88-14.57ZM416.55,75.16c.76-.23,3.11-.69,9-2.46,5.55-1.68,9.91-3.16,15.31-4.79,6.61-2,16.45-2.41,19.44,7.48,1.47,4.86-.78,9.77-4.69,13-.21.15-.16.3.09.3,6.87-.33,13.69,1.92,15.94,9.37,2.21,7.3-.95,13.32-6.69,18.21-3.5,3-8.33,5.09-13.43,6.63-3.88,1.17-14.43,3.87-20.16,5.76-.68,0-.36-3.12,0-3.74a14.71,14.71,0,0,0,3.69-1.78c1.9-1.15,1.94-1.83,1.3-5-.65-2.7-3.5-12.13-5.53-18.82-2.78-9.2-4.59-15.46-5.58-18.48-.79-2.33-1.86-2.84-3.67-2.79-1.36.17-3.58.5-5.4.81-.49-.27,0-3.25.38-3.69ZM387,135.72c2.26.89,6,.41,9.21-.55,4.1-1.24,8-3.24,10.85-8s4-11.35,1.33-20.32c-2.6-8.59-8-14.59-15.92-16.68-4.51-1.2-9.68-.72-15.3,1a12.11,12.11,0,0,0-4.1,1.82,2.33,2.33,0,0,0-.39,1.45c.31,1.56,3.85,13.27,5.92,20.11,2.13,7.07,5.12,17,5.62,18a5,5,0,0,0,2.78,3.15ZM355.43,93.65c1.44-.44,7.06-1.89,9.72-2.7,4.79-1.44,8.15-2.71,17.19-5.44,7.6-2.3,14.61-2.18,20.34.32,7,3.11,11.89,8.85,14.33,16.91,3.47,11.48.22,19.68-3.87,25.07s-10.23,9.81-20,12.75c-5.17,1.57-14.11,4.1-21.51,6.26l-.07,0c-.59-.57-.41-3.53.18-3.79a12.31,12.31,0,0,0,3.29-1.74c1.41-1.09,1.46-2,.84-4.9-1.36-5.32-3.34-11.6-5.5-18.75-1.54-5.09-4.48-15.08-5.6-18.22-1-2.59-2.38-2.93-4.79-2.7-1.21.12-2.83.27-5,.69-.47-.44.19-3.21.43-3.78Z" transform="translate(-6.31 -66.76)"/><path class="cls-2" d="M278.64,171.72a16.31,16.31,0,0,1-5.34.2,2.45,2.45,0,0,1-1-1c-1-2.61-3.26-10.21-4.8-15.31-1.24-4.1-3-7.47-5.51-9.45a10.84,10.84,0,0,0-10.2-1.89c-3.34,1-7.14,4.65-9.9,9,0,.09-.5.81-.68,0s-.6-2.55-.87-3.72a2.08,2.08,0,0,0-1-1.43c-2.06,1.95-8.42,5.62-10.86,6.6-1.71.93-1.64,2.82.45,2.85l.07,0a17.78,17.78,0,0,1,5.08.62,2.45,2.45,0,0,1,1.33,1.92c1.8,5.68,4.45,14.43,5.67,19.28.5,1.93.17,2.77-1.11,3.49l.13-.12a29.71,29.71,0,0,1-3,1.57,4.66,4.66,0,0,0,1,3.42c.83-.25,5.17-1.81,8.83-2.92,5-1.51,7.67-2.07,9-2.46a5.12,5.12,0,0,0-.66-3.53,14.44,14.44,0,0,1-3.65.52c-1.46.11-2.05-.46-2.61-2-1.37-4-3.95-12.5-5.69-18.28a3.8,3.8,0,0,1,.06-3.09,12.06,12.06,0,0,1,6.29-4.72,8.17,8.17,0,0,1,5.77.17,7.74,7.74,0,0,1,3.88,4c1.37,3.15,3.17,9.66,4.87,15.29.92,3,.93,3.87-.1,4.59a14.86,14.86,0,0,1-3.29,1.74c-.37.7.49,3,1,3.42,2.2-.66,4.72-1.67,8.52-2.82,4.71-1.43,7.82-2.12,9-2.49a5.57,5.57,0,0,0-.76-3.33Zm12.27-35.41c-4,1.22-5.59,5.09-4.12,10s5.42,10,11.66,8.09a6.16,6.16,0,0,0,3.49-2.72c1-1.8,1.19-4.84.32-7.73-1.91-6.31-6.18-9.17-11.35-7.6Zm9.63,33.76a6.73,6.73,0,0,0-3,1.83c-2.58,3-3.42,5.43-2.71,7.78a7,7,0,0,0,4.32,4.67c2.78,1.24,6.09,1.23,10,.06,7.75-2.35,9.91-7.56,8.67-11.67-.87-2.89-2.89-4.35-6.18-4.52-2.4-.27-6.42.45-11.06,1.85Zm6.51,19.61c-4.64,1.4-8.28,1.42-11.84.09a10.48,10.48,0,0,1-6.3-6.31,6.09,6.09,0,0,1,.37-4.26,42.83,42.83,0,0,1,5.29-7.74c.13-.12.19-.22.14-.37a.53.53,0,0,0-.42-.29c-4-.29-5.72-2.17-6.39-3.3l0-.15a1.14,1.14,0,0,1,0-1.51c.41-.54,1-1.22,1.71-2a32.61,32.61,0,0,0,2.81-3.34.55.55,0,0,0,0-.5.52.52,0,0,0-.42-.29c-5.85-.14-9.7-3.28-11.5-9.21a12.06,12.06,0,0,1,2-11.05,23.43,23.43,0,0,1,9.82-7l.23-.07a24.43,24.43,0,0,1,8.92-.7,14.72,14.72,0,0,0,5.17-.74c3-.89,4-2.2,4.72-3.58a4.41,4.41,0,0,1,.77,1.43,6.07,6.07,0,0,1,.07,3.79,4.54,4.54,0,0,1-2.91,2.46l-.38.11a19.93,19.93,0,0,1-2.07.3l-.26.24c0,.18.09.3.24.51l.12.13a29.13,29.13,0,0,1,1.44,3.13c1.89,6.23.21,9.73-1.83,12.59a18.35,18.35,0,0,1-7.86,6.11,7.72,7.72,0,0,0-1,.4c-.38.11-.89.35-1,.37l-.08,0c-.56.34-1.85,1.56-1.46,2.85.35,1.14,1.45,2.3,4.78,1.54.71-.13,1.39-.33,2.18-.49,4.42-1,9.94-2.26,12.7-2.18a8.9,8.9,0,0,1,8.16,6.41c1.7,5.63-.74,12.09-6.44,17.38a25.58,25.58,0,0,1-9.45,5.27Zm27.31-66.1A7.49,7.49,0,0,0,330.6,126c-2.41,2.72-2.83,6.83-1.22,12.16,3,10,10.14,15.43,17.29,13.27a8,8,0,0,0,4.69-3.41c1.66-2.49,1.69-6.49.15-11.58-3-9.88-9.93-15-17.15-12.82Zm11.21,32.13c-12.92,3.91-20.44-4.2-23.13-13.09a17.22,17.22,0,0,1,3.16-16.72A23.9,23.9,0,0,1,336.2,119c9.88-3,18.94,2,22,12.18,2.09,6.92,1,13.22-3.22,18.15a22.11,22.11,0,0,1-9.43,6.42Zm-145.31,8.43a7.34,7.34,0,0,0-3.77,2.38c-2.41,2.72-2.83,6.83-1.22,12.15,3,10,10.15,15.44,17.29,13.28a8.11,8.11,0,0,0,4.7-3.42c1.65-2.49,1.69-6.48.15-11.58C214.42,167.07,207.55,161.93,200.26,164.14Zm11.2,32.12c-12.92,3.91-20.43-4.19-23.12-13.09a17.17,17.17,0,0,1,3.16-16.72,23.9,23.9,0,0,1,10.59-6.94c9.89-3,18.94,2,22,12.18,2.1,6.92,1,13.22-3.22,18.15a21.5,21.5,0,0,1-9.43,6.42Zm-87.12,25.52a3.43,3.43,0,0,1-.76-1.68,2.78,2.78,0,0,1-.12-1.21,27.27,27.27,0,0,0,3.14-1.7c1.41-.84,1.76-1.86,1.26-3.78-1.15-4.63-3.77-13.3-5.66-19.28l0-.15a2.4,2.4,0,0,0-1.48-1.88,18,18,0,0,0-5.16-.6c-.75,0-1.32-.26-1.38-.74s.16-1.12,1.1-1.58A57.83,57.83,0,0,0,126,182.7a2,2,0,0,1,.75,1.1l.18.86c.17.86.4,1.87.7,2.86a.61.61,0,0,0,.77.35,1.24,1.24,0,0,0,.41-.29c3.71-5.27,7.71-8,10-8.66,3.72-1.13,7.14-.26,10.45,2.73a.6.6,0,0,0,.62.14.56.56,0,0,0,.39-.37c3.45-4.77,7.32-8.18,10.28-9.08,7.07-2.14,12.84,1.84,15.53,10.74.76,2.51,1.75,5.78,2.57,8.76.8,2.66,1.46,5.12,2,6.87a2.49,2.49,0,0,0,1.92,1.41,17,17,0,0,0,4.73-.27l.08,0a6.36,6.36,0,0,1,.41,3,17.61,17.61,0,0,1-1.92.5c-1.95.49-3.9,1-5.82,1.6-4.72,1.42-7.13,2.24-9.44,3.1a7.78,7.78,0,0,1-.87-2.89,24.58,24.58,0,0,0,2.68-1.56c1.38-.91,1.56-1.71,1-3.71-.44-1.45-3.86-13.85-5.21-16.68a7.84,7.84,0,0,0-9.76-4.27,14.14,14.14,0,0,0-6.86,5.31,1.44,1.44,0,0,0-.07.85l0,.08a36.24,36.24,0,0,1,2.19,6.14l1.5,4.94c1,3.42,1.92,6.64,2.73,9.05a2.33,2.33,0,0,0,2.54,1.8c.48-.06.8-.07,1.21-.11l2.59-.21a4.21,4.21,0,0,1,.57,2.16,1.46,1.46,0,0,1-.08.85c-2.6.7-5.29,1.43-9.16,2.6-1.14.35-3.1,1-4.77,1.53-1.37.41-2.64.88-3.4,1.11a4.45,4.45,0,0,1-.69-1.45,2.59,2.59,0,0,1-.11-1.46,5.91,5.91,0,0,1,1-.48c.87-.42,1.58-.81,2.3-1.19,1.18-.77,1.42-1.59,1-3.29-.92-3.87-4-14.81-5.34-17.38-2.24-4.14-5.42-5.58-9.45-4.36a14.58,14.58,0,0,0-6.85,5.31,2.53,2.53,0,0,0-.16,1.95l1.36,4.49c1.65,5.47,3.72,12.31,4.69,15.25a2.47,2.47,0,0,0,2.84,1.72,15.66,15.66,0,0,0,1.85-.23l1.43-.18a6.64,6.64,0,0,1,.65,2.95c-.76.23-1.7.43-2.76.76-1.62.4-3.7,1-6,1.64-2.66.8-4.54,1.45-6,2a18.71,18.71,0,0,0-2.86.7Z" transform="translate(-6.31 -66.76)"/><path class="cls-3" d="M89.87,252.12,86.43,252S82,236,76,236.57c-5.14-3.26-55.95-187.2,14.1-4.93,0,0-4,3.78-3.61,8.07S89.87,252.12,89.87,252.12Z" transform="translate(-6.31 -66.76)"/><path class="cls-4" d="M89.87,252.12,86.43,252S82,236,76,236.57c-5.14-3.26-55.95-187.2,14.1-4.93,0,0-4,3.78-3.61,8.07S89.87,252.12,89.87,252.12Z" transform="translate(-6.31 -66.76)"/><path class="cls-3" d="M86.89,236.25s21.87-26.19,4.2-61.59c-14.37-25.28-31.58-29.78-34.21-32.72a40,40,0,0,1-5.44-5.65l24,75.14c0,.08,4.63,23.83,11.49,24.82" transform="translate(-6.31 -66.76)"/><path class="cls-5" d="M86.89,236.25s21.87-26.19,4.2-61.59c-14.37-25.28-31.58-29.78-34.21-32.72a40,40,0,0,1-5.44-5.65l24,75.14c0,.08,4.63,23.83,11.49,24.82" transform="translate(-6.31 -66.76)"/><path class="cls-3" d="M80.81,239.17s-30.91-9.74-38.7-41,5.65-51.82,8.32-55.62c1.55-3.12,1.35-4.05.76-6.53C53.82,139,68,186.8,69.89,192.36,77.12,213.82,81.32,234.54,80.81,239.17Z" transform="translate(-6.31 -66.76)"/><path class="cls-6" d="M80.81,239.17s-30.91-9.74-38.7-41,5.65-51.82,8.32-55.62c1.55-3.12,1.35-4.05.76-6.53C53.82,139,68,186.8,69.89,192.36,77.12,213.82,81.32,234.54,80.81,239.17Z" transform="translate(-6.31 -66.76)"/><path class="cls-7" d="M400.13,351.28a5.94,5.94,0,0,0-3,.21l-30.3,11.2a5.87,5.87,0,0,0-3.73,4.54L357.66,399a5.9,5.9,0,0,0,2,5.52l6.48,5.39c3.21,2.33,4.5,2.52,6.09,2.79,5.18.89,8.68-1.75,9.61-7.21l5.38-31.37a.79.79,0,0,0-.69-.9l-3.45-.6a.8.8,0,0,0-.95.62l-5.38,31.38c-.41,2.42-3.35,4.42-7.09,1.68l-6.74-5.68a.8.8,0,0,1-.35-.78L368,368.07a.94.94,0,0,1,.59-.68l30.24-11.14a.8.8,0,0,1,.82.14L424.47,377a1,1,0,0,1,.34.85l-5.45,31.78a.88.88,0,0,1-.54.69l-30.29,11.14a.87.87,0,0,1-.82-.14l-6.36-5.43a.77.77,0,0,0-.7-.12,18.66,18.66,0,0,1-4.48,1.16c-.48.08-1.21.21,0,1.21l8.32,7a5.91,5.91,0,0,0,5.73,1L420.54,415a5.91,5.91,0,0,0,3.74-4.54l5.44-31.79a5.88,5.88,0,0,0-2-5.53l-24.84-20.64a5.74,5.74,0,0,0-2.75-1.2Z" transform="translate(-6.31 -66.76)"/><path class="cls-7" d="M403.61,375.26c-7.85-1.35-13.1,1.19-14.05,6.75-1,6,3.32,8.48,10.73,10.51,8.86,2.43,9.34,3.88,9,5.65-.52,3.08-3.2,4-9,3-7.29-1.25-8.58-3.35-8.49-7.06a.82.82,0,0,0-.64-.84l-3.57-.61a.85.85,0,0,0-1,.68c-.8,4.64.78,10.56,12.84,12.63,8.72,1.49,14.34-1.07,15.37-7.07s-2.77-8.24-11-10.81-9.08-3.29-8.74-5.29c.28-1.66,1.36-3.75,7.69-2.66,5.66,1,7.54,2.54,7.74,6.51a.8.8,0,0,0,.65.77l3.57.61a.88.88,0,0,0,.64-.19.78.78,0,0,0,.33-.55c.57-6.66-3.28-10.5-12.1-12Z" transform="translate(-6.31 -66.76)"/><path class="cls-8" d="M245.18,281.82a1.7,1.7,0,0,0-.92.08,1.83,1.83,0,0,0-1.14,1.37l-7.67,44.78a1.23,1.23,0,0,1-.77,1,1.28,1.28,0,0,1-1.23-.21l-6.59-5.47a3.55,3.55,0,0,0-3.51-.61l-32.1,11.86a3.63,3.63,0,0,0-2.29,2.8l-5.78,33.72a3.54,3.54,0,0,0,1.23,3.34l26.32,21.87a3.59,3.59,0,0,0,3.52.6l32.1-11.85a3.56,3.56,0,0,0,2.27-2.75L263,298.25a3.61,3.61,0,0,0-1.28-3.41L246,282.14a1.64,1.64,0,0,0-.85-.32ZM50.06,291.7a3.31,3.31,0,0,0-1.65.13l-32.1,11.86A3.54,3.54,0,0,0,14,306.43l-7.7,45.26A1.77,1.77,0,0,0,7,353.36a1.74,1.74,0,0,0,1.76.3l19-7A3.63,3.63,0,0,0,30.08,344l3.62-21.13A3.57,3.57,0,0,1,36,320.07l8.11-3a3.56,3.56,0,0,1,1.83-.16,3.49,3.49,0,0,1,1.68.77l6.64,5.53a3.57,3.57,0,0,1,1.24,3.35l-3.63,21.13a3.67,3.67,0,0,0,1.3,3.36L68.77,364a1.72,1.72,0,0,0,1.75.3,1.77,1.77,0,0,0,1.14-1.37l7.82-45.24a3.54,3.54,0,0,0-1.24-3.35L51.92,292.44a3.15,3.15,0,0,0-1.51-.68Zm262.41,45.4a3.48,3.48,0,0,0-1.83.17l-32.1,11.85a3.54,3.54,0,0,0-2.28,2.74l-5.78,33.72a3.56,3.56,0,0,0,1.29,3.35l26.15,21.48a3.58,3.58,0,0,0,3.44.65l19.24-6.77a1.79,1.79,0,0,0,1.2-1.36,1.74,1.74,0,0,0-.62-1.67l-26.5-21.9a1.93,1.93,0,0,1-.66-1.74l1.81-10.54a1.81,1.81,0,0,1,1.19-1.36l10-3.7a1.77,1.77,0,0,1,1.75.3l8.23,6.83a1.79,1.79,0,0,1,.62,1.68l-1.43,8.31a1.79,1.79,0,0,0,.62,1.67,1.76,1.76,0,0,0,1.76.3l19.25-7.18a3.59,3.59,0,0,0,2.28-2.74l1.39-8.14a3.56,3.56,0,0,0-1.23-3.35l-26.15-21.83a3.5,3.5,0,0,0-1.68-.77Zm-91.65,10.2a.87.87,0,0,1,.45.2l9,7.51a.9.9,0,0,1,.33.84l-2,11.59a.94.94,0,0,1-.6.68l-11,4.08a.9.9,0,0,1-.88-.15l-9-7.51a1,1,0,0,1-.34-.84l2-11.6a.93.93,0,0,1,.6-.68l11-4.07a.72.72,0,0,1,.43-.05Z" transform="translate(-6.31 -66.76)"/><path class="cls-7" d="M155.37,314.8a3.32,3.32,0,0,0-1.73.16L123.55,326a3.4,3.4,0,0,0-2.14,2.62L116,360.26a3.33,3.33,0,0,0,1.15,3.14l24.69,20.5a3.33,3.33,0,0,0,3.29.57l30.1-11.12a3.33,3.33,0,0,0,2.14-2.57l5.42-31.62a3.44,3.44,0,0,0-1.15-3.19l-24.69-20.45A3.42,3.42,0,0,0,155.37,314.8Zm159,56.29a.65.65,0,0,0-.34,0l-5.79,2.17a.68.68,0,0,0-.43.5l-1,6a.67.67,0,0,0,.23.61l4.76,3.92a.58.58,0,0,0,.6.11l5.79-2.12a.65.65,0,0,0,.42-.49l1-6a.68.68,0,0,0-.24-.61l-4.74-4a.52.52,0,0,0-.27-.1Z" transform="translate(-6.31 -66.76)"/><path class="cls-9" d="M433.26,209.14l-25.9,8.46-22.53,9.94-6.31,1.67c-1.6,1.52-3.29,3.07-5.11,4.64-2,1.72-3.85,3.29-5.28,4.42a38.58,38.58,0,0,0-5.13,5.09,23.19,23.19,0,0,0-3.8,6.42,10.75,10.75,0,0,0,1.53,9.69c2.66,3.92,8,7.91,14.15,10.63a88.93,88.93,0,0,0,12.45,4.17,163.75,163.75,0,0,0,26.55,3.78,29.86,29.86,0,0,0,3.43,0,47.13,47.13,0,0,0,2.52-4.79A120.8,120.8,0,0,0,429,249a113.69,113.69,0,0,0,2.35-16.84c.14-1.89.2-8.26.08-10.41a71.65,71.65,0,0,0-1-9.18,2.12,2.12,0,0,1-.06-.81c.08-.05.32-.13,3.51-1.05l-.65-1.53Zm-5.91,3.46c.24,0,.86,6,1,9.81a5.09,5.09,0,0,1,0,1.33c-.16,0-3.31-1.86-5.56-3.26-2-1.24-5.68-3.7-6.27-4.17-.19-.14-.17-.16,1.43-.71C420.67,214.68,427.14,212.6,427.35,212.6ZM414.16,217a6.91,6.91,0,0,1,1.7.92,120.48,120.48,0,0,0,11.86,6.6c.73.31.8.19-.86,1.33A84.46,84.46,0,0,1,413.41,233c-1,.44-1.76.77-1.78.77a5.34,5.34,0,0,1,.23-1.08A57.34,57.34,0,0,0,414,219c0-2,0-2,.2-2,0,0,0,0,0,0Zm-2.73,1a42.65,42.65,0,0,1-.11,5.7,50.58,50.58,0,0,1-1.8,8.51c-.22.73-.42,1.33-.45,1.37a33.55,33.55,0,0,1-3.65-3.54,26.77,26.77,0,0,1-3.6-5.25,16.09,16.09,0,0,1-1.09-2.66c.31-.22,10.63-4.21,10.7-4.13Zm-12.8,5a.07.07,0,0,1,.06,0,3.22,3.22,0,0,1,.29.7,26.77,26.77,0,0,0,3.25,5.82,33.4,33.4,0,0,0,4.52,4.87c.47.4.91.77,1,.83s.16.09-3,1.31c-3.7,1.41-7.73,2.82-12.35,4.3L389,242c-.18.06-.12,0,.39-.84a110.31,110.31,0,0,0,7.73-15.58c.34-.87.67-1.73.73-1.92a.69.69,0,0,1,.43-.51,1.67,1.67,0,0,1,.33-.08Zm-3.92,1.63a43.27,43.27,0,0,1-1.91,4c-1.9,3.7-4,7.34-6.76,11.76-.47.77-.92,1.47-1,1.55s-.13.1-.45-.51a17.94,17.94,0,0,1-1.5-4.54,18.15,18.15,0,0,1,.09-5.83c.26-1.22.24-1.2.83-1.49,2.5-1.27,10.61-5.07,10.68-5ZM428.49,226v.82a105.9,105.9,0,0,1-1.16,14.72c-.12.76-.21,1.39-.23,1.41l-1.24-.35a50.1,50.1,0,0,1-9-3.86,39.68,39.68,0,0,1-4.58-2.82s.84-.45,1.8-1a116.91,116.91,0,0,0,10.71-6.28c1.19-.8,3-2.1,3.38-2.45l.32-.23Zm-48.56,5.79c.08,0,.06.16-.06.86-.07.51-.17,1.45-.21,2.1a14.47,14.47,0,0,0,1.72,7.87c.39.8.71,1.47.69,1.48s-13.1,3.92-17.17,5l-2.35.64c-.14,0-.16,0-.1-.31.45-2.88,2.64-6.64,5.7-9.81a25.16,25.16,0,0,1,6.44-4.93c2-1.14,5.07-2.84,5.3-2.92,0,0,0,0,0,0Zm30.54,5.46a8.46,8.46,0,0,1,1.06.57,58.77,58.77,0,0,0,15,5.83l.45.1-.63.35c-2.6,1.45-11.16,5-19.91,8.29l-2.76,1a1.35,1.35,0,0,1-.45.14s.35-.7.8-1.55a96.21,96.21,0,0,0,6.17-14c.16-.37.25-.71.27-.73Zm-3.11,1a6.17,6.17,0,0,1-.33.9,124.83,124.83,0,0,1-6.79,13.69c-.73,1.29-1.34,2.33-1.36,2.33l-1.31-.79a40.1,40.1,0,0,1-10.24-8.71l-.35-.43,1.78-.49A127,127,0,0,0,406,238.86ZM426.7,245h0a73.94,73.94,0,0,1-1.8,7.41c-.68,2.44-1.27,4.36-2.35,7.75-.47,1.49-.88,2.72-.9,2.72a1.28,1.28,0,0,1-.25-.06,82.58,82.58,0,0,1-15.92-4.48c-1.37-.55-3.33-1.43-3.44-1.53a21.4,21.4,0,0,1,2.62-1.23c8.91-3.9,18.15-8.32,21.32-10.22a2.63,2.63,0,0,1,.72-.36Zm-44.65,1.53s-2.45,3.62-5.93,8.5c-1.22,1.7-2.63,3.7-3.16,4.44s-1.33,1.92-1.78,2.63l-.82,1.27-.88-.75a32.63,32.63,0,0,1-3.64-3.71,16,16,0,0,1-3.27-6.33c-.22-.94-.22-1.41,0-1.47s5.52-1.31,10.41-2.44c2.73-.63,5.88-1.37,7-1.65l2.08-.49Zm2.5,1,.63.71a36.73,36.73,0,0,0,9.18,7.51,5.34,5.34,0,0,1,1.06.69c-.14.1-12.1,4.35-17.64,6.26-3.11,1.1-5.68,2-5.7,2s-.19-.12-.39-.25l-.35-.26.57-.82c1.84-2.66,4.15-5.58,9.18-11.65l3.46-4.17Zm15.63,11.18s.88.29,1.93.69a66,66,0,0,0,7.27,2.25,81.5,81.5,0,0,0,11,1.9c.43,0,.67.07.59.13s-3,1-5.13,1.71c-3.37,1.05-13.65,4.09-22,6.5-1.54.45-2.87.82-3,.84a1.51,1.51,0,0,1-.84-.22,15.61,15.61,0,0,1,1-1.31,116.87,116.87,0,0,0,8-10.69c.65-1,1.2-1.78,1.2-1.8Zm-3.45.1s-1.37,2.25-3.8,6.09l-2.6,4.11c-.39.62-1,1.6-1.31,2.15l-.57,1-.29-.08c-.71-.19-5.66-1.94-7-2.47a46.39,46.39,0,0,1-4.57-2.09,18.87,18.87,0,0,1-3.36-2.13l5.95-1.63c8.57-2.33,13.33-3.68,16.44-4.66a8.66,8.66,0,0,1,1.08-.29Zm24.38,5.71h0c.08.2-3.09,9-4.24,11.79-.26.63-.36.78-.49.76-.34,0-4.94-.66-7.74-1.07-4.87-.75-13-2.18-15.11-2.65l-.47-.09,2.92-.67c6.26-1.41,9.28-2.17,12.33-3.11A87.57,87.57,0,0,0,419.85,265a10.18,10.18,0,0,1,1.26-.51Z" transform="translate(-6.31 -66.76)"/><path class="cls-10" d="M406.56,148.76A124.18,124.18,0,0,0,394.7,153a74.79,74.79,0,0,0-13.65,6.85,10.27,10.27,0,0,0-2.64,2.65,1.76,1.76,0,0,0-.12.66l2.62,2.49,6.25,2L402,170.34l17,2.91.18-1.46-.16,0-2.23-.36-.45-.8c-2.31-4.07-4.86-9.12-6.34-12.53a62.8,62.8,0,0,1-2.86-7.89c-.34-1.33-.38-1.41-.59-1.43Zm-.31,1h0s.09.57.17,1.21a40.64,40.64,0,0,0,1.9,8.25c.73,2.15.73,2-.12,1.78-2-.55-10.94-2.1-17.42-3-1-.13-1.92-.27-1.92-.29s4.68-2.57,6.77-3.54C398.34,152.93,405.7,149.86,406.25,149.76Zm-18.88,8.77.77.26a116.64,116.64,0,0,0,20.34,3.87l1.21.12a9.91,9.91,0,0,1-1.23.65c-2.78,1.39-5.84,3.09-7.95,4.4a8.64,8.64,0,0,1-1.27.71c-.08,0-.49-.08-.92-.14l-.79-.12-1.95-1.92c-3.45-3.35-6.15-5.93-7.19-6.91Zm-.78.61,2.76,3.44c1.51,1.9,3,3.76,3.37,4.17s.6.75.59.77-4-.71-6.07-1.18-3-.72-4.33-1.13l-1.08-.35v-.28c0-1.31,1.69-3.27,4.51-5.27l.25-.17Zm23.45,4.7c.08,0,.18.17.41.7.67,1.47,2.75,5.42,3.25,6.19.16.25.44.27-2.32-.18-6.64-1.07-8.78-1.43-8.78-1.47a2.36,2.36,0,0,1,.45-.29,38.16,38.16,0,0,0,6-4.13c.45-.37.86-.73.94-.78s0-.06.07,0Z" transform="translate(-6.31 -66.76)"/><path class="cls-11" d="M378.54,162.25a2,2,0,0,0,0,1.7,7.91,7.91,0,0,0,1.84,2.18s8.72,8.49,9.77,9.71c4.82,5.56,6.91,11,7.11,18.6a30.06,30.06,0,0,1-3.09,14.07c-4.08,8.89-12.67,18.7-25.92,29.59l1.93-.65a62.92,62.92,0,0,1,6.95-4.13,248.74,248.74,0,0,1,32.33-14.47c18.32-6.89,48.45-15,65.6-17.58l1.78-.27-.27-.44a61.31,61.31,0,0,0-3.94-5.54,47.16,47.16,0,0,0-13.9-11.57c-7.67-4.28-17.6-7.63-30.17-10.12-2.36-.47-7.57-1.37-11.8-2-9-1.39-14.76-2.35-21.14-3.45-2.29-.39-5.72-1-8-1.47a48.31,48.31,0,0,1-5.19-1.39c-1.41-.55-3.45-1.09-3.88-2.76Zm5,4.9a4.47,4.47,0,0,1,.75.23c.74.25,1.7.55,2.84.86q1.29.36,2.58.69c1.18.29,2.16.56,2.17.56s2.12,6.47,2.78,8.89c.26.92.46,1.71.44,1.71a3.91,3.91,0,0,1-.49-.77,40.81,40.81,0,0,0-10.11-11.41,9.32,9.32,0,0,1-1-.76Zm9.64,2.66a8.55,8.55,0,0,1,1,.17c3.33.75,9.3,1.88,13.12,2.53a5.71,5.71,0,0,1,1.16.25,2.07,2.07,0,0,1-.53.34c-.65.33-3.25,1.88-4.11,2.46a37.22,37.22,0,0,0-5.54,4.43c-.57.57-1.06,1-1.06,1s-.12-.34-.22-.75a63.15,63.15,0,0,0-3.5-9.59,7.23,7.23,0,0,1-.39-.9s0,0,0,0ZM410.18,173a7.59,7.59,0,0,1,.71,2.17,32.51,32.51,0,0,1,.94,9,16.56,16.56,0,0,1-.12,1.68l-.06.2-1-.34c-2.09-.66-5.5-1.66-8.42-2.48-1.66-.45-3-.86-3-.9a46.78,46.78,0,0,1,3.46-3.47,90.73,90.73,0,0,1,7.52-5.83Zm1.35.19c.06,0,8.11,1.34,11.77,2,2.72.53,6.67,1.35,6.91,1.45s-.29.27-1.61.86a84.58,84.58,0,0,0-12.82,7c-1,.67-1.84,1.21-1.86,1.21a10.29,10.29,0,0,1,0-1.25,27.35,27.35,0,0,0-2.11-10.65A2.85,2.85,0,0,1,411.53,173.23Zm20.81,4.12a14.2,14.2,0,0,1-.43,2.58A48.94,48.94,0,0,1,427,191.25a13.31,13.31,0,0,1-.82,1.33A8.83,8.83,0,0,1,425,192a64.53,64.53,0,0,0-7.67-3.76c-.79-.33-1.47-.61-1.49-.64s6.17-4.29,9.49-6.29c2.65-1.6,6.95-4,7-3.91Zm1.49.23c.18,0,3.74,1,5.6,1.53A116.22,116.22,0,0,1,452.76,184l1.43.65-1,.23a145.94,145.94,0,0,0-22.57,7c-.57.24-1.08.43-1.12.43a5,5,0,0,1,.42-1,39.64,39.64,0,0,0,3.77-13c0-.38.08-.67.14-.67Zm-35.47,8.14c.05-.05,2.78.59,4.24,1,2.24.63,7,2.22,7,2.33s-.52.47-1.15,1c-2.57,2.14-5,4.39-8,7.24-.88.85-1.62,1.53-1.66,1.53s-.06-.12,0-.27a44.06,44.06,0,0,0-.28-11.81C398.4,186.21,398.34,185.74,398.36,185.72Zm57.18.06a36.3,36.3,0,0,1-2.07,3.23c-1.18,1.69-2.9,3.92-6.8,8.81l-5.13,6.48c-.78,1-1.42,1.8-1.44,1.8a5.94,5.94,0,0,1-.55-.78,40.6,40.6,0,0,0-7.93-8.75c-.59-.49-1.23-1-1.45-1.17a2,2,0,0,1-.39-.34c0-.06,3.33-1.48,5.85-2.5,4.43-1.8,10.46-4,15-5.35,2.37-.74,4.89-1.47,4.93-1.43Zm1.51.39a5.11,5.11,0,0,1,1.12.55,66.59,66.59,0,0,1,13.09,9.83c1,1,3.61,3.68,3.57,3.7l-2,.16a193,193,0,0,0-28.94,4.81l-1.33.3s.73-.77,1.69-1.69c5.95-5.73,8.67-9.35,11.88-15.81.45-1,.84-1.79.88-1.85Zm-43.6,4.47c.27.06,2.82,1.25,4.74,2.21,1.76.88,4.4,2.29,4.54,2.41s-.92.51-2.07,1.08c-3.69,1.84-6.84,3.58-10.13,5.58-.94.56-1.72,1-1.74,1s-.06-.08.47-1a41.35,41.35,0,0,0,4-10.79c.07-.3.15-.49.21-.49Zm-2.54.47c0,.06-.61,2.47-1,3.78a49.25,49.25,0,0,1-3.47,8l-1,1.8-.48.78-1.1-1.06a14.54,14.54,0,0,0-3.64-2.68,4.84,4.84,0,0,1-.94-.55c0-.15,3.35-3.19,5.91-5.38,1.84-1.59,5.72-4.7,5.78-4.64Zm15.56,6.4,1,.63a74.45,74.45,0,0,1,6.75,5c1.12.92,3.27,2.86,3.7,3.33l.24.25-1.59.45c-9,2.49-15.89,4.7-24,7.68-.9.33-1.66.6-1.72.6s-.22.1,1.8-1.76a85.66,85.66,0,0,0,13.15-15.11l.69-1.06Zm-4.09,1s-2.65,3.82-4.25,5.95c-1.92,2.55-5.33,6.81-7.68,9.59-1,1.16-1.82,2.12-1.85,2.14s-.08-.28-.08-.73a16.41,16.41,0,0,0-1.67-7c-.45-.9-.53-1.11-.43-1.21.37-.33,6.07-3.58,9.67-5.52,2.43-1.29,6.23-3.21,6.29-3.17Zm-24.75,6.07a7.76,7.76,0,0,1,1,.51,21.55,21.55,0,0,1,3.37,2.27,5.74,5.74,0,0,1-1.14.94c-1.86,1.33-4.68,3.46-6.32,4.77s-1.78,1.41-1.59,1.12a33.12,33.12,0,0,0,4.27-8.61,3.4,3.4,0,0,1,.39-1Zm6.6,5.17c.1,0,.21.15.74.94a14.1,14.1,0,0,1,2.2,5.69l0,.39-2.69,1c-4.79,1.86-9.22,3.7-12.21,5.07-.85.39-2.31,1.1-3.27,1.57s-1.75.86-1.75.84.61-.47,1.36-1a79.47,79.47,0,0,0,14.72-13.56c.41-.49.78-.94.82-1Zm-3,.74a43,43,0,0,1-3.69,4.15,64.63,64.63,0,0,1-12.15,9.81l-1.18.74c-.14.08,0-.11,2.08-2.33a52,52,0,0,0,3.38-4,6.73,6.73,0,0,1,2-1.86C394.48,214.93,401.12,210.43,401.2,210.51Z" transform="translate(-6.31 -66.76)"/><path class="cls-12" d="M316.42,291.57c-.36,0-.72,0-1.08,0-7.3.39-12.22,3.6-15.09,9.87-2.46,5.67-2.2,13.08,0,18.78,2.58,5.58,6.75,8.52,13.71,9.63,1.48.24,2.47,1.05,5.32,4.38l3.51,4.11h6.36l-4.23-4.26a44.7,44.7,0,0,1-4.23-4.56c0-.18.89-.57,2-.9,3.57-1.08,6.53-3.84,8.61-8.07,1.68-3.4,1.92-4.45,2.16-8.67.63-12.58-6-20.44-17-20.35ZM322,324.46a15,15,0,0,1-10.53.72c-3-1.11-6-4.26-7.29-7.83-1.47-3.9-1.26-11.1.42-14.34,2.7-5.16,6.27-7.54,11.49-7.54,7.74,0,12.14,4.74,12.72,13.66.45,7.43-2,13-6.81,15.33Zm110-22.14a6.81,6.81,0,0,0-6.09,3.21l-1.08,1.68v-4.38h-4.63v26.29h4.62v-8.41c0-7.68.1-8.58,1.17-10.68,1.48-2.88,4-4.32,6.49-3.63l1.65.48v-4.56Zm-27.15-.24a13.21,13.21,0,0,0-2.82.33c-6.19,1.61-9.67,7.53-9.46,13.62,0,5.1,1,7.65,3.45,10.32,5,4.14,9.6,4.47,15.76,2.25l2.19-1V323.5l-2.19,1.14c-5,2.16-8.73,2.16-11.74-.39a11.88,11.88,0,0,1-3.15-7h18.64v-3.54c0-7.23-4.35-11.79-10.68-11.67Zm-7.54,11.52s.69-4.5,3.25-6.27a6.9,6.9,0,0,1,4-1.29,6.45,6.45,0,0,1,3.91,1.32c2.34,1.8,2.73,6.21,2.73,6.21h-13.9v0Zm-111.4-4.74c-5-3-7.23-5.22-7-7.8.78-7.14,9.6-6.15,14.49-3.45l0-4.81a18.8,18.8,0,0,0-6.57-1.23c-5.94-.09-9.78,1.86-11.58,5.82-2.64,5.85-.3,10.26,8.16,15.18,4.75,2.77,6.85,5.16,6.85,7.78,0,5.4-6.52,7.29-13.24,3.9-1.38-.69-2.55-1.27-2.61-1.27a42,42,0,0,0-.12,5.2,28.83,28.83,0,0,0,5.16,1.47c7.68,1.53,14.67-2.08,15.33-7.92.57-5.5-1.41-8.38-8.94-12.87Zm187-6.85a13.9,13.9,0,0,0-2.85.34c-6.18,1.61-9.66,7.53-9.42,13.62,0,5.1,1,7.62,3.45,10.29,5,4.14,9.6,4.47,15.78,2.25,1.05-.45,2.18-1,2.18-1v-4.14l-2.18,1.14c-5,2.17-8.74,2.17-11.74-.39a11.74,11.74,0,0,1-3.15-7h18.6v-3.54c0-7.19-4.35-11.76-10.68-11.64Zm-7.53,11.53s.69-4.5,3.24-6.3a7,7,0,0,1,4-1.29,6.4,6.4,0,0,1,3.9,1.32c2.34,1.8,2.73,6.24,2.73,6.24H465.32v0Zm-84.7-4.62c-5-3-7.22-5.22-7-7.8.78-7.15,9.6-6.16,14.49-3.46l0-4.8a18.67,18.67,0,0,0-6.57-1.22c-5.94-.09-9.78,1.85-11.58,5.82-2.64,5.85-.27,10.26,8.16,15.18,4.74,2.76,6.84,5.13,6.84,7.74,0,5.4-6.51,7.32-13.23,3.9-1.37-.69-2.54-1.26-2.61-1.26a42,42,0,0,0-.12,5.2,31.87,31.87,0,0,0,5.13,1.46c7.68,1.54,14.68-2.06,15.33-7.91.57-5.46-1.41-8.34-8.91-12.84ZM500,302.25a6.81,6.81,0,0,0-6.09,3.22l-1.08,1.68v-4.38h-4.62v26.28h4.62v-8.4c0-7.68.09-8.58,1.17-10.68,1.48-2.88,4-4.32,6.48-3.63l1.66.48v-4.56H500Zm-156.13,6.52V292h-4.65v37.08h19.59v-4.38H343.87v-16ZM451.61,314l-3.84,10-3.69-10.05-3.75-11.13h-4.77c3.09,8.76,6.45,17.67,9.84,26.31,1.47,0,2.94,0,4.41,0l5.19-13,5.28-13.29h-4.56s-2,5.28-4.11,11.19Zm-97-32.07a2.53,2.53,0,0,0,1.89-.76,2.49,2.49,0,0,0,.78-1.85,2.47,2.47,0,0,0-.78-1.86,2.75,2.75,0,0,0-3.75,0,2.53,2.53,0,0,0-.75,1.86,2.41,2.41,0,0,0,.75,1.86,2.53,2.53,0,0,0,1.86.72ZM353,277.65a2.35,2.35,0,0,1,4,1.66,2.3,2.3,0,0,1-.68,1.67,2.25,2.25,0,0,1-1.66.66A2.18,2.18,0,0,1,353,281a2.31,2.31,0,0,1-.69-1.67A2.22,2.22,0,0,1,353,277.65Zm1.11,1.9h.3c.22,0,.43.2.6.59l.37.82h.56l-.44-.91c-.19-.36-.37-.57-.58-.62a1.14,1.14,0,0,0,.63-.34.82.82,0,0,0,.21-.6.77.77,0,0,0-.27-.63,1.53,1.53,0,0,0-1-.26h-1V281H354v-1.41Zm0-1.57h.42a1,1,0,0,1,.63.16c.12.08.15.2.15.42,0,.38-.24.57-.69.57h-.52V278Zm-77,1.27c0-1.17,0-2-.06-2.56h0a7.63,7.63,0,0,0,.39,1.36l4.47,10h.75L287.16,278a8.49,8.49,0,0,0,.39-1.26h0c-.09,1-.12,1.86-.12,2.55v8.82H289V275h-1.92L283,284.08q-.23.54-.63,1.62h-.07a9.08,9.08,0,0,0-.59-1.56l-4-9.21h-2V288h1.47v-8.79Zm15.24,0h1.32v8.17h-1.32Zm.66-3a.94.94,0,0,0,.69-.28,1,1,0,0,0,.3-.69.84.84,0,0,0-.29-.68,1,1,0,0,0-.7-.28.92.92,0,0,0-.69.28,1,1,0,0,0-.3.68.83.83,0,0,0,.3.69,1,1,0,0,0,.69.28Zm10.09,11.33v-1.43a3.84,3.84,0,0,1-2.31.81,3,3,0,0,1-2.32-1,3.74,3.74,0,0,1-.87-2.58,3.89,3.89,0,0,1,.93-2.72,3,3,0,0,1,2.34-1,3.89,3.89,0,0,1,2.23.72v-1.53a5.15,5.15,0,0,0-5.71.93,5.25,5.25,0,0,0-1.31,3.71,4.76,4.76,0,0,0,1.19,3.37,4.29,4.29,0,0,0,3.25,1.35,5.33,5.33,0,0,0,2.58-.67Zm3.78-4.35a4.26,4.26,0,0,1,.68-2.54,1.9,1.9,0,0,1,1.54-.82,1.75,1.75,0,0,1,1.13.31v-1.57a2.57,2.57,0,0,0-.89-.12,2.32,2.32,0,0,0-1.45.52,3.15,3.15,0,0,0-1,1.58h0v-1.91h-1.49v9.36h1.5v-4.81Zm8.61,5a4.44,4.44,0,0,0,3.39-1.35,5.06,5.06,0,0,0,1.26-3.6,5.16,5.16,0,0,0-1.17-3.58,4.14,4.14,0,0,0-3.27-1.29,4.67,4.67,0,0,0-3.39,1.24,5.08,5.08,0,0,0-1.38,3.77,4.89,4.89,0,0,0,1.2,3.46,4.36,4.36,0,0,0,3.36,1.35Zm-2.13-7.62a2.93,2.93,0,0,1,2.25-.91,2.78,2.78,0,0,1,2.22.91,5,5,0,0,1,.06,5.37,2.73,2.73,0,0,1-2.25,1,2.91,2.91,0,0,1-2.28-1,3.79,3.79,0,0,1-.84-2.64,3.65,3.65,0,0,1,.84-2.73Zm13.35,6.81a2.47,2.47,0,0,0,.87-1.92,2.33,2.33,0,0,0-.69-1.71,5.13,5.13,0,0,0-1.74-1,5.53,5.53,0,0,1-1.41-.78,1.29,1.29,0,0,1-.39-1,1.14,1.14,0,0,1,.44-.93,1.87,1.87,0,0,1,1.21-.35,3.52,3.52,0,0,1,2.13.66v-1.5a4.4,4.4,0,0,0-2-.45,3.61,3.61,0,0,0-2.38.78,2.42,2.42,0,0,0-.92,1.95,2.39,2.39,0,0,0,.59,1.68,5.07,5.07,0,0,0,1.68,1.05,6.27,6.27,0,0,1,1.53.87,1.13,1.13,0,0,1,.39.89c0,.88-.6,1.33-1.77,1.33a3.72,3.72,0,0,1-2.43-.9v1.62a4.47,4.47,0,0,0,2.31.57,4.08,4.08,0,0,0,2.58-.87Zm7.14-9a4.67,4.67,0,0,0-3.39,1.24,5.08,5.08,0,0,0-1.38,3.77,4.89,4.89,0,0,0,1.2,3.46,4.88,4.88,0,0,0,6.75,0,5,5,0,0,0,1.26-3.6,5.12,5.12,0,0,0-1.17-3.57,4.23,4.23,0,0,0-3.27-1.29Zm2.91,4.93A4,4,0,0,1,336,286a2.73,2.73,0,0,1-2.25,1,2.91,2.91,0,0,1-2.28-1,3.79,3.79,0,0,1-.84-2.64,3.84,3.84,0,0,1,.9-2.76,3,3,0,0,1,2.25-.91,2.86,2.86,0,0,1,2.22.91,4.55,4.55,0,0,1,.75,2.76Zm4.05,4.68h1.5v-8.1h2.19v-1.26h-2.19v-1.45c0-1.31.51-2,1.56-2a2.1,2.1,0,0,1,1,.24v-1.36a3.39,3.39,0,0,0-3.1.61,3.18,3.18,0,0,0-1,2.43v1.53h-1.58V280h1.58V288Zm6.15-2.56c0,1.84.81,2.77,2.46,2.77a2.73,2.73,0,0,0,1.41-.31v-1.29a1.53,1.53,0,0,1-1,.3,1.28,1.28,0,0,1-1.08-.39,2.22,2.22,0,0,1-.33-1.35v-5.28h2.37v-1.26h-2.37v-2.76c-.52.18-1,.33-1.5.48v2.28h-1.62v1.26H347v5.55Zm161,17.26a2.56,2.56,0,0,0-1.86-.73,2.5,2.5,0,0,0-1.89.76,2.54,2.54,0,0,0-.76,1.86,2.48,2.48,0,0,0,.75,1.86,2.65,2.65,0,0,0,1.89.72,2.59,2.59,0,0,0,1.9-.75,2.56,2.56,0,0,0,.77-1.86,2.59,2.59,0,0,0-.81-1.86Zm-.25,3.54a2.19,2.19,0,0,1-1.65.65,2.24,2.24,0,0,1-1.65-.65,2.32,2.32,0,0,1-.69-1.69,2.36,2.36,0,0,1,4-1.65,2.27,2.27,0,0,1,.69,1.65A2.13,2.13,0,0,1,507.74,306.28Zm-1.34-1.53a1.31,1.31,0,0,0,.63-.33.85.85,0,0,0,.2-.61.76.76,0,0,0-.27-.63,1.51,1.51,0,0,0-1-.26h-1v3.36h.49v-1.41h.3c.2,0,.41.2.59.59l.36.81h.57l-.44-.9c-.16-.39-.34-.57-.52-.63Zm-.33-.3h-.52v-1.14H506a1.07,1.07,0,0,1,.63.15c.12.09.15.21.15.42,0,.39-.24.57-.69.57Zm-83.71-26.16h.42v-3.36h1.11v-.42h-2.64v.42h1.11v3.36Zm2.54-2.53a7.11,7.11,0,0,0,0-.74,2.16,2.16,0,0,0,.12.38l1.29,2.89h.2l1.3-2.91c0-.09.06-.21.12-.36a6.64,6.64,0,0,0,0,.72v2.54h.45v-3.77h-.54l-1.17,2.6c0,.1-.12.28-.18.49h0a1.86,1.86,0,0,0-.17-.45l-1.17-2.64h-.6v3.78h.42v-2.52Z" transform="translate(-6.31 -66.76)"/></svg>