<svg id="Layer_1" data-name="Layer 1" xmlns="http://www.w3.org/2000/svg" viewBox="0 0 252.6 247.75"><defs><style>.cls-1{fill:#fff;}.cls-2{fill:#53c1de;}.cls-3{fill:#e6e9ed;}.cls-4{fill:#656d78;}.cls-5{fill:#ccd1d9;}.cls-6{fill:#ed5564;}.cls-7{fill:#ffce54;}.cls-8{fill:#a0d468;}.cls-9{fill:#fc6e51;}.cls-10{fill:#5d9cec;}.cls-11{fill:#eac6bb;}.cls-12{fill:#434a54;}</style></defs><title>box4</title><path class="cls-1" d="M4.52,97.35C4.52,111.43,18.27,124.58,40,132c-4.33,21.8-.78,39.37,11.09,46.21,12.2,7,30.38,2.17,47.63-12.91,16.82,14.47,33.81,20.16,45.67,13.3,12.19-7.06,15.9-25.82,11.45-48.29,22.58-7.47,35.21-18.68,35.21-33,0-13.76-13.78-25.66-35.17-33,4.79-23.41.74-40.55-11.63-47.68-11.91-6.87-29.11-.88-46.17,14C80.28,14.86,63.26,10.05,50.91,17.2,39,24.09,35.61,42,40,64.17,19,71.48,4.52,83.65,4.52,97.35Z" transform="translate(-4.52 -13.82)"/><path class="cls-2" d="M151.3,71.64q-2.64-.9-5.33-1.68c.3-1.21.57-2.42.83-3.63,4-19.59,1.39-35.38-7.62-40.57-8.64-5-22.77.21-37,12.63-1.4,1.23-2.78,2.49-4.12,3.78-.9-.86-1.81-1.7-2.74-2.53C80.32,26.36,65.33,20.76,56.33,26c-8.63,5-11.19,19.84-7.56,38.4q.54,2.76,1.23,5.49c-2.12.6-4.17,1.24-6.13,1.93C26.33,77.9,15.14,87.48,15.14,97.42c0,10.26,12,20.56,30.28,26.8,1.48.5,3,1,4.48,1.4q-.74,2.94-1.3,5.91c-3.47,18.24-.76,32.73,7.85,37.7,8.89,5.12,23.81-.15,38.34-12.85,1.15-1,2.3-2.07,3.46-3.18q2.18,2.1,4.47,4.08c14.08,12.11,28,17,36.58,12,8.89-5.14,11.77-20.7,8-39.63-.28-1.45-.62-2.93-1-4.43,1-.31,2.08-.63,3.08-1,19-6.29,31.34-16.46,31.34-26.86,0-10-11.56-19.62-29.45-25.78Z" transform="translate(-4.52 -13.82)"/><path class="cls-1" d="M147.19,117.56q-1.37.45-2.79.87a165.55,165.55,0,0,0-8.38-21,166.59,166.59,0,0,0,8.06-20.67c1.69.49,3.34,1,4.92,1.55,15.33,5.28,24.68,13.08,24.68,19.09,0,6.4-10.1,14.71-26.49,20.14ZM140.38,131c1.66,8.37,1.9,15.94.8,21.86-1,5.32-3,8.86-5.42,10.28-5.22,3-16.38-.9-28.42-11.26q-2.07-1.78-4.17-3.8a165.18,165.18,0,0,0,13.89-17.63A166.17,166.17,0,0,0,139.49,127c.33,1.36.64,2.7.89,4ZM71.6,162.66c-5.1,1.8-9.16,1.85-11.62.44-5.22-3-7.39-14.65-4.43-30.25.35-1.84.75-3.68,1.21-5.5a166.13,166.13,0,0,0,22.32,3.23,172.56,172.56,0,0,0,14.21,17.57q-1.55,1.48-3.15,2.9c-6.43,5.62-12.87,9.6-18.54,11.61ZM47.71,117.52c-8.08-2.76-14.75-6.34-19.32-10.26-4.11-3.52-6.18-7-6.18-9.84,0-6,9-13.72,24-19,1.88-.66,3.78-1.25,5.7-1.8A169.6,169.6,0,0,0,60,97.59,172.19,172.19,0,0,0,51.8,118.8C50.42,118.41,49.06,118,47.71,117.52Zm8-54.51c-3.12-15.9-1-27.9,4.15-30.91,5.54-3.21,17.79,1.36,30.71,12.83.82.73,1.65,1.5,2.48,2.29A171.19,171.19,0,0,0,79,64.68a171.43,171.43,0,0,0-22.1,3.44c-.42-1.69-.8-3.4-1.13-5.11Zm71.43,17.64q-2.41-4.19-5-8.28c5.28.67,10.35,1.56,15.1,2.64a152.1,152.1,0,0,1-5.3,14.26Q129.63,84.92,127.15,80.65ZM98,52.28A152.66,152.66,0,0,1,107.77,64c-6.52-.3-13.06-.31-19.58,0C91.41,59.8,94.71,55.86,98,52.28ZM68.7,80.7Q66.27,84.93,64,89.27C62,84.38,60.2,79.58,58.76,74.94c4.73-1.06,9.77-1.92,15-2.58Q71.14,76.47,68.7,80.7ZM73.93,123a148.65,148.65,0,0,1-15.26-2.45c1.46-4.72,3.26-9.63,5.37-14.62q2.23,4.34,4.69,8.57T73.93,123Zm24.29,20.08c-3.36-3.62-6.7-7.62-10-11.93,3.17.13,6.41.19,9.69.19s6.72-.08,10-.22A152.62,152.62,0,0,1,98.22,143.06ZM132,105.65a151.24,151.24,0,0,1,5.56,14.57,147.68,147.68,0,0,1-15.45,2.63q2.63-4.16,5.08-8.42t4.81-8.78Zm-10.94,5.24q-3.75,6.54-7.94,12.82c-4.92.35-10,.53-15.17.53s-10.16-.16-15-.47q-4.29-6.26-8.1-12.84c-2.52-4.35-4.88-8.81-7.06-13.34q3.27-6.81,7-13.35h0q3.78-6.54,8-12.79c4.93-.37,10-.56,15.08-.56s10.19.19,15.11.57q4.22,6.23,8,12.74t7.14,13.29q-3.31,6.83-7.12,13.4Zm14.6-79c5.54,3.2,7.7,16.09,4.22,33-.23,1.1-.48,2.2-.75,3.29A168.18,168.18,0,0,0,117,64.69a166.51,166.51,0,0,0-14-17.47q1.86-1.8,3.81-3.49C119,33.09,130.44,28.88,135.65,31.89Z" transform="translate(-4.52 -13.82)"/><path class="cls-2" d="M97.94,82.63A14.79,14.79,0,1,1,83.15,97.42,14.79,14.79,0,0,1,97.94,82.63" transform="translate(-4.52 -13.82)"/><path class="cls-3" d="M227.91,250.68A10.89,10.89,0,0,1,217,261.57H159.82a10.89,10.89,0,0,1-10.9-10.89V141.74a10.9,10.9,0,0,1,10.9-10.9H217a10.9,10.9,0,0,1,10.9,10.9V250.68Z" transform="translate(-4.52 -13.82)"/><path class="cls-4" d="M148.92,239.79v10.89a10.89,10.89,0,0,0,10.9,10.89H217a10.89,10.89,0,0,0,10.9-10.89V239.79Z" transform="translate(-4.52 -13.82)"/><path class="cls-5" d="M192.5,250.68a5.45,5.45,0,1,1-5.45-5.45A5.45,5.45,0,0,1,192.5,250.68Z" transform="translate(-4.52 -13.82)"/><path class="cls-6" d="M184.33,163.53a2.72,2.72,0,0,1-2.73,2.72H159.82a2.72,2.72,0,0,1-2.73-2.72V141.74a2.73,2.73,0,0,1,2.73-2.73H181.6a2.73,2.73,0,0,1,2.73,2.73v21.79Z" transform="translate(-4.52 -13.82)"/><path class="cls-7" d="M217,163.53a2.72,2.72,0,0,1-2.72,2.72H192.5a2.73,2.73,0,0,1-2.73-2.72V141.74A2.73,2.73,0,0,1,192.5,139h21.79a2.72,2.72,0,0,1,2.72,2.73Z" transform="translate(-4.52 -13.82)"/><path class="cls-8" d="M184.33,196.21a2.72,2.72,0,0,1-2.73,2.72H159.82a2.72,2.72,0,0,1-2.73-2.72V174.42a2.72,2.72,0,0,1,2.73-2.72H181.6a2.72,2.72,0,0,1,2.73,2.72v21.79Z" transform="translate(-4.52 -13.82)"/><path class="cls-9" d="M184.33,228.89a2.73,2.73,0,0,1-2.73,2.73H159.82a2.73,2.73,0,0,1-2.73-2.73V207.1a2.72,2.72,0,0,1,2.73-2.72H181.6a2.72,2.72,0,0,1,2.73,2.72v21.79Z" transform="translate(-4.52 -13.82)"/><path class="cls-10" d="M217,228.89a2.72,2.72,0,0,1-2.72,2.73H192.5a2.73,2.73,0,0,1-2.73-2.73V207.1a2.73,2.73,0,0,1,2.73-2.72h21.79A2.72,2.72,0,0,1,217,207.1Z" transform="translate(-4.52 -13.82)"/><path class="cls-11" d="M231.29,165.84a5.88,5.88,0,0,0-7.83-3.23c-3.12,1.39-5.55,5.5-4.16,8.59l-1.23-2.75c-1.39-3.1-5.68-4.19-8.8-2.8s-5.16,5.32-3.77,8.42l-1.87-4.18c-1.37-3.06-5.62-4.15-8.71-2.83a3.69,3.69,0,0,0-.42.17c-3.11,1.39-5.13,5.3-3.74,8.4l-9.51-21.27c-1.39-3.09-5.46-4.29-8.57-2.89a6.47,6.47,0,0,0-3.46,8.27l19.15,42.81L181.83,199a7.17,7.17,0,0,0-9.68,2.86A7.06,7.06,0,0,0,175,211.5l30.61,16.58,2.72,3a3.44,3.44,0,0,0,4.13,1l30.48-13.63v0l.08,0a3.46,3.46,0,0,0,2-3.59.13.13,0,0,0,0-.06C238.29,178,231.29,165.84,231.29,165.84Z" transform="translate(-4.52 -13.82)"/><polygon class="cls-12" points="243.71 196.35 198.64 216.5 207.53 236.39 252.6 216.24 243.71 196.35"/></svg>