<?xml version="1.0" encoding="utf-8"?>
<!-- Generator: Adobe Illustrator 24.1.0, SVG Export Plug-In . SVG Version: 6.00 Build 0)  -->
<svg version="1.1" id="Layer_1" xmlns="http://www.w3.org/2000/svg" xmlns:xlink="http://www.w3.org/1999/xlink" x="0px" y="0px"
	 viewBox="0 0 175.5 202.1" style="enable-background:new 0 0 175.5 202.1;" xml:space="preserve">
<style type="text/css">
	.st0{fill:#FFFFFF;}
	.st1{fill:#53C1DE;}
	.st2{fill:#563D7C;}
</style>
<g>
	<path class="st0" d="M17.8,158.6c1.7,6.9,10,11.8,21.6,12.9c0.4,11.3,4.3,19.5,10.9,21.5c6.9,2,15.2-2.5,22-12
		c10,5.1,19,5.9,24.1,1.2c5.1-4.8,4.8-14.6-0.1-25.1c10.3-6.4,15.1-13.4,13.5-20.4c-1.6-6.8-9.8-11-21.2-12.1
		c-0.4-12.1-4.4-20-11.4-22.1c-6.7-2-14.4,3-21.1,12.3c-10.6-5.7-19.6-6-24.8-1.1c-5.1,4.8-4.6,14,0.1,24.4
		C21.9,144.2,16.2,151.8,17.8,158.6z"/>
	<path class="st1" d="M87.1,128.6c-0.9-0.1-1.9-0.1-2.8-0.2c0-0.6,0-1.3,0-1.9c-0.3-10.1-3.5-17.6-8.5-19.1
		C70.9,106,64.6,110.2,59,118c-0.6,0.8-1.1,1.6-1.6,2.4c-0.5-0.3-1.1-0.6-1.6-0.9c-8.9-4.8-17-5.8-20.8-2.1
		c-3.7,3.5-3.2,11.1,0.8,19.8c0.4,0.9,0.8,1.7,1.3,2.6c-1,0.6-1.9,1.1-2.8,1.7c-8,5-12.4,11-11.2,15.9c1.2,5.1,8.4,8.7,18.1,9.6
		c0.8,0.1,1.6,0.1,2.4,0.2c0,1,0,2,0.1,3.1c0.4,9.4,3.5,16.2,8.3,17.6c5,1.5,11.7-2.9,17.4-10.9c0.4-0.6,0.9-1.3,1.3-2
		c0.9,0.5,1.8,1,2.7,1.5c8.4,4.3,15.8,5.1,19.4,1.6s3.4-11.6-0.7-20.5c-0.3-0.7-0.6-1.4-1-2.1c0.5-0.3,1-0.6,1.4-0.8
		c8.6-5.4,13.5-11.8,12.3-16.9C103.5,132.9,96.7,129.5,87.1,128.6L87.1,128.6z"/>
	<path class="st0" d="M90.5,151.8l-1.3,0.8c-2-3.3-4.2-6.4-6.6-9.4c0.8-3.7,1.3-7.4,1.5-11.1c0.9,0,1.8,0.1,2.6,0.2
		c8.2,0.8,13.7,3.5,14.4,6.5C102,141.9,98,147.1,90.5,151.8L90.5,151.8z M88.8,159.2c1.6,3.3,2.7,7,3,10.7c0.1,2.7-0.4,4.7-1.5,5.7
		c-2.2,2.1-8.2,1.5-15.3-2.2c-0.8-0.4-1.7-0.9-2.5-1.4c1.8-3.3,3.4-6.8,4.8-10.3c3.6-1.2,7.2-2.7,10.6-4.4
		C88.2,158,88.5,158.6,88.8,159.2L88.8,159.2z M58.6,182.9c-2.3,1.5-4.3,2-5.7,1.6c-2.9-0.9-5.4-6.3-5.8-14.4c0-0.9-0.1-1.9,0-2.9
		c3.8-0.1,7.6-0.4,11.4-1c2.9,2.5,5.9,4.9,9.1,7c-0.4,0.6-0.8,1.2-1.2,1.8C64.3,178.1,61.7,180.8,58.6,182.9L58.6,182.9z
		 M41.5,163.5c-3.7-0.3-7.4-1.2-10.7-2.8c-2.4-1.3-3.9-2.7-4.2-4.1c-0.7-3,2.8-7.8,9.6-12.2c0.9-0.5,1.7-1.1,2.6-1.6
		c1.9,3.3,4.1,6.4,6.4,9.4c-0.8,3.8-1.3,7.6-1.5,11.4C42.9,163.6,42.2,163.5,41.5,163.5z M39,135.7c-3.4-7.5-3.8-13.6-1.6-15.7
		c2.2-2.1,8.9-1.4,16.6,2.7c0.5,0.3,1,0.5,1.5,0.8c-1.9,3.3-3.5,6.7-4.9,10.3c-3.6,1.2-7.1,2.6-10.5,4.3
		C39.8,137.3,39.4,136.5,39,135.7z M76.3,135.9c-1.1-1.2-2.3-2.4-3.5-3.5c2.6-0.3,5.2-0.5,7.8-0.5c-0.2,2.6-0.5,5.1-0.9,7.6
		C78.6,138.4,77.4,137.1,76.3,135.9L76.3,135.9z M58.6,125.4c2.1,1.4,4.2,3,6.2,4.6c-3.2,0.6-6.5,1.4-9.6,2.3
		C56.2,130,57.3,127.6,58.6,125.4L58.6,125.4z M47.5,142.8c-0.5,1.6-0.9,3.2-1.3,4.8c-1.6-2.2-3-4.3-4.3-6.4c2.2-1.1,4.6-2.1,7.1-3
		C48.5,139.7,48,141.3,47.5,142.8z M55.1,163.1c-2.6,0.3-5.2,0.5-7.8,0.6c0.2-2.6,0.5-5.2,0.9-7.8c1.1,1.3,2.2,2.5,3.3,3.7
		S53.8,161.9,55.1,163.1L55.1,163.1z M69.4,170.1c-2.1-1.4-4.2-3-6.3-4.7c1.6-0.3,3.2-0.7,4.8-1.1c1.6-0.4,3.3-0.8,4.9-1.3
		C71.8,165.4,70.6,167.8,69.4,170.1L69.4,170.1z M81.6,147.6c1.6,2.1,3.1,4.3,4.5,6.5c-2.4,1.2-4.8,2.2-7.3,3.1
		c0.5-1.6,1-3.2,1.5-4.8S81.2,149.3,81.6,147.6z M76.9,151.5c-0.7,2.4-1.5,4.9-2.4,7.3c-2.4,0.8-4.9,1.4-7.4,2
		c-2.5,0.6-5,1.1-7.4,1.5c-1.9-1.7-3.7-3.5-5.5-5.4c-1.8-1.9-3.4-3.8-5.1-5.7c0.5-2.5,1.2-5,1.9-7.4l0,0c0.7-2.4,1.5-4.9,2.4-7.3
		c2.4-0.8,4.9-1.5,7.4-2.1c2.5-0.6,5-1.1,7.5-1.5c1.9,1.7,3.7,3.5,5.4,5.3c1.8,1.9,3.4,3.8,5.1,5.7C78.2,146.5,77.6,149,76.9,151.5
		L76.9,151.5z M74.7,110.9c3.1,0.9,5.7,7,6,15.8c0,0.6,0,1.1,0,1.7c-3.8,0-7.6,0.3-11.3,0.9c-2.8-2.5-5.8-4.9-9-7
		c0.5-0.7,1-1.5,1.5-2.2C66.6,113.4,71.8,110,74.7,110.9L74.7,110.9z"/>
	<path class="st1" d="M62.1,140.3c4-1,8.1,1.5,9,5.5c1,4-1.5,8.1-5.5,9c-4,1-8.1-1.5-9-5.5l0,0C55.6,145.3,58.1,141.3,62.1,140.3"/>
</g>
<path class="st2" d="M0,62.8c0,5.1,4.2,9.3,9.3,9.3l0,0h53.5c5.1,0,9.3-4.2,9.3-9.3l0,0V9.3c0-5.1-4.2-9.3-9.3-9.3l0,0H9.3
	C4.2,0,0,4.2,0,9.3l0,0V62.8z"/>
<path class="st0" d="M29.9,31.9V21.7h9c0.8,0,1.7,0.1,2.5,0.2c0.7,0.1,1.5,0.4,2.1,0.8s1.1,0.9,1.5,1.5c0.4,0.8,0.6,1.6,0.6,2.5
	c0.1,1.5-0.5,3-1.7,4c-1.3,0.9-2.8,1.3-4.3,1.2C39.6,31.9,29.9,31.9,29.9,31.9z M20.3,14.2v43.6h21.1c1.9,0,3.8-0.2,5.7-0.7
	c1.8-0.4,3.5-1.2,5-2.3c1.4-1,2.6-2.4,3.4-3.9c0.9-1.8,1.3-3.7,1.3-5.7c0.1-2.5-0.6-4.9-2-7c-1.5-2-3.6-3.5-6-4.1
	c1.8-0.8,3.3-2,4.4-3.6c1-1.6,1.6-3.6,1.5-5.5c0.1-1.8-0.3-3.5-1-5.1c-0.6-1.3-1.6-2.5-2.8-3.3c-1.3-0.9-2.8-1.5-4.4-1.8
	c-1.9-0.4-3.8-0.6-5.7-0.5L20.3,14.2z M29.9,50.4v-12h10.4c1.8-0.1,3.5,0.4,5,1.4c1.3,1,1.9,2.6,1.9,4.8c0,1-0.2,1.9-0.6,2.8
	c-0.4,0.7-0.9,1.3-1.6,1.7c-0.7,0.4-1.5,0.8-2.3,0.9c-0.9,0.2-1.8,0.3-2.7,0.3L29.9,50.4z"/>
<image style="overflow:visible;enable-background:new    ;" width="2000" height="1500" xlink:href="../../../portfolio/LOGOS/2000px-Sass_Logo_Color.svg_.png"  transform="matrix(3.781631e-02 2.249281e-02 -2.249281e-02 3.781631e-02 104.2654 31.915)">
</image>
</svg>
